<?xml version="1.0" standalone="no"?>
<!DOCTYPE svg PUBLIC "-//W3C//DTD SVG 20010904//EN"
 "http://www.w3.org/TR/2001/REC-SVG-20010904/DTD/svg10.dtd">
<svg version="1.0" xmlns="http://www.w3.org/2000/svg"
 width="128.000000pt" height="128.000000pt" viewBox="0 0 128.000000 128.000000"
 preserveAspectRatio="xMidYMid meet">
<metadata>
Created by potrace 1.11, written by Peter Selinger 2001-2013
</metadata>
<g transform="translate(0.000000,128.000000) scale(0.100000,-0.100000)"
fill="#000000" stroke="none">
<path d="M637 1265 c-100 -20 -135 -61 -157 -190 -14 -85 -26 -116 -42 -114
-28 3 -36 -2 -31 -21 3 -11 9 -20 13 -20 4 0 11 -7 14 -16 7 -19 -16 -56 -74
-114 -61 -62 -100 -121 -120 -181 l-17 -50 -22 27 c-11 15 -21 31 -21 35 0 14
-26 10 -39 -5 -15 -17 -25 -384 -12 -405 7 -11 18 -11 59 -1 87 20 120 12 177
-45 47 -48 85 -72 148 -94 16 -7 27 -18 27 -30 0 -35 48 -42 106 -16 30 14 49
18 145 30 121 14 284 82 342 144 30 31 31 34 13 45 -58 36 -79 72 -112 199 -1
4 -3 9 -4 12 -4 7 -5 15 -14 65 -5 25 -10 54 -13 65 -9 44 -23 144 -29 210 -3
39 -7 81 -10 95 -2 14 -6 45 -10 70 -13 104 -49 193 -99 248 -54 60 -118 77
-218 57z m-363 -875 c4 -56 1 -68 -17 -87 -27 -30 -47 -29 -47 1 0 44 44 165
56 153 2 -1 5 -32 8 -67z"/>
</g>
</svg>
